<svg xmlns="http://www.w3.org/2000/svg" width="200" height="200" viewBox="0 0 200 200" fill="none">
  <rect width="200" height="200" fill="#4BAED5" />
  <path d="M70 65C70 60.5817 73.5817 57 78 57H122C126.418 57 130 60.5817 130 65V135C130 139.418 126.418 143 122 143H78C73.5817 143 70 139.418 70 135V65Z" fill="#E6F7FF" />
  <path d="M85 82C85 79.7909 86.7909 78 89 78H111C113.209 78 115 79.7909 115 82V88C115 90.2091 113.209 92 111 92H89C86.7909 92 85 90.2091 85 88V82Z" fill="#4BAED5" />
  <path d="M96 110C96 106.686 98.6863 104 102 104C105.314 104 108 106.686 108 110V125C108 128.314 105.314 131 102 131C98.6863 131 96 128.314 96 125V110Z" fill="#4BAED5" />
  <path d="M70 65V68H130V65C130 60.5817 126.418 57 122 57H78C73.5817 57 70 60.5817 70 65Z" fill="#4BAED5" />
</svg>