<svg xmlns="http://www.w3.org/2000/svg" width="200" height="200" viewBox="0 0 200 200" fill="none">
  <rect width="200" height="200" fill="#78C077" />
  <path d="M93 40C93 40 85 60 95 75C105 90 115 95 125 105C135 115 140 130 140 130C140 130 130 125 120 120C110 115 105 110 100 100C95 90 90 80 90 60C90 40 93 40 93 40Z" fill="#34823F" />
  <path d="M107 40C107 40 115 60 105 75C95 90 85 95 75 105C65 115 60 130 60 130C60 130 70 125 80 120C90 115 95 110 100 100C105 90 110 80 110 60C110 40 107 40 107 40Z" fill="#34823F" />
  <rect x="95" y="80" width="10" height="80" fill="#8E5A2E" />
  <path d="M75 155C75 150 85 145 100 145C115 145 125 150 125 155C125 160 115 165 100 165C85 165 75 160 75 155Z" fill="#8E5A2E" />
</svg>