<svg xmlns="http://www.w3.org/2000/svg" width="200" height="200" viewBox="0 0 200 200" fill="none">
  <rect width="200" height="200" fill="#FF8A65" />
  <circle cx="100" cy="100" r="50" fill="#FFCCBC" />
  <circle cx="80" cy="80" r="10" fill="#FF8A65" />
  <circle cx="120" cy="80" r="10" fill="#FF8A65" />
  <path d="M70 115C80 135 120 135 130 115" stroke="#FF8A65" stroke-width="5" stroke-linecap="round" />
  <path d="M60 60C60 50 65 45 75 45C85 45 80 55 80 60" fill="#FFCCBC" />
  <path d="M60 60C60 50 65 45 75 45C85 45 80 55 80 60" stroke="#FF8A65" stroke-width="2" />
  <path d="M140 60C140 50 135 45 125 45C115 45 120 55 120 60" fill="#FFCCBC" />
  <path d="M140 60C140 50 135 45 125 45C115 45 120 55 120 60" stroke="#FF8A65" stroke-width="2" />
</svg>